<svg xmlns="http://www.w3.org/2000/svg" width="28.902" height="24.045" viewBox="0 0 28.902 24.045">
  <g id="Group_1396" data-name="Group 1396" transform="translate(28.902 24.045) rotate(180)">
    <path id="Path_73" data-name="Path 73" d="M28.44,52.245,18,41.807a1.586,1.586,0,0,0-2.237,0l-.948.948a1.57,1.57,0,0,0-.462,1.118,1.6,1.6,0,0,0,.462,1.132l6.089,6.1H1.561A1.544,1.544,0,0,0,0,52.663V54a1.6,1.6,0,0,0,1.561,1.624H20.976l-6.158,6.137a1.567,1.567,0,0,0,0,2.221l.948.945a1.587,1.587,0,0,0,2.237,0L28.441,54.491a1.6,1.6,0,0,0,0-2.245Z" transform="translate(0 -41.346)" fill="#00a99d"/>
  </g>
</svg>
