<?xml version="1.0" encoding="iso-8859-1"?>
<!-- Generator: Adobe Illustrator 18.0.0, SVG Export Plug-In . SVG Version: 6.00 Build 0)  -->
<!DOCTYPE svg PUBLIC "-//W3C//DTD SVG 1.1//EN" "http://www.w3.org/Graphics/SVG/1.1/DTD/svg11.dtd">
<svg version="1.1" id="Capa_1" xmlns="http://www.w3.org/2000/svg" xmlns:xlink="http://www.w3.org/1999/xlink" x="0px" y="0px"
	 viewBox="0 0 429.389 429.389" style="enable-background:new 0 0 429.389 429.389;" xml:space="preserve">
<g>
	<path d="M384.282,104.003c3.54,0,6.642-2.569,7.35-6.03c0.614-3.002-0.755-6.17-3.346-7.798c-2.937-1.845-6.849-1.422-9.314,1.028
		C374.328,95.819,377.77,104.003,384.282,104.003z"/>
	<path d="M411.66,129.199c-1.647-3.8-6.062-5.545-9.865-3.896c-3.8,1.648-5.544,6.065-3.896,9.865
		c15.761,36.34,20.338,76.232,13.236,115.364c-7.266,40.039-26.375,76.471-55.261,105.357c-77.854,77.854-204.533,77.855-282.388,0
		C35.771,318.174,15,268.03,15,214.694S35.771,111.214,73.485,73.5c37.127-37.127,86.483-57.893,138.976-58.472
		c52.406-0.592,102.127,19.002,139.996,55.135c2.997,2.859,7.745,2.748,10.604-0.249c2.859-2.997,2.748-7.744-0.249-10.604
		C322.095,20.46,268.651-0.578,212.295,0.029C155.858,0.652,102.794,22.977,62.878,62.894C22.331,103.441,0,157.351,0,214.694
		s22.331,111.253,62.878,151.801c40.547,40.547,94.458,62.878,151.8,62.878c57.343,0,111.253-22.331,151.801-62.878
		c31.055-31.055,51.601-70.229,59.414-113.285C433.526,211.15,428.604,168.268,411.66,129.199z"/>
	<path d="M214.679,42.595c-94.896,0-172.099,77.204-172.099,172.1c0,94.896,77.203,172.099,172.099,172.099
		s172.099-77.203,172.099-172.099C386.778,119.798,309.575,42.595,214.679,42.595z M214.679,371.793
		c-86.625,0-157.099-70.474-157.099-157.099c0-86.625,70.474-157.1,157.099-157.1s157.099,70.475,157.099,157.1
		C371.778,301.319,301.304,371.793,214.679,371.793z"/>
	<path d="M214.679,97.463c-4.142,0-7.5,3.358-7.5,7.5v102.231h-67.468c-4.142,0-7.5,3.358-7.5,7.5s3.358,7.5,7.5,7.5h74.968
		c4.142,0,7.5-3.358,7.5-7.5V104.963C222.179,100.821,218.821,97.463,214.679,97.463z"/>
</g>
<g>
</g>
<g>
</g>
<g>
</g>
<g>
</g>
<g>
</g>
<g>
</g>
<g>
</g>
<g>
</g>
<g>
</g>
<g>
</g>
<g>
</g>
<g>
</g>
<g>
</g>
<g>
</g>
<g>
</g>
</svg>
