<?xml version="1.0" encoding="iso-8859-1"?>
<!-- Generator: Adobe Illustrator 19.0.0, SVG Export Plug-In . SVG Version: 6.00 Build 0)  -->
<svg version="1.1" id="Capa_1" xmlns="http://www.w3.org/2000/svg" xmlns:xlink="http://www.w3.org/1999/xlink" x="0px" y="0px"
	 viewBox="0 0 57.001 57.001" style="enable-background:new 0 0 57.001 57.001;" xml:space="preserve">
<g>
	<g>
	</g>
	<g>
		<path d="M39,13.001c3.309,0,6-2.691,6-6s-2.691-6-6-6s-6,2.691-6,6S35.691,13.001,39,13.001z M39,3.001c2.206,0,4,1.794,4,4
			s-1.794,4-4,4c-0.117,0-0.226-0.025-0.34-0.034C39.476,10.234,40,9.182,40,8.001h-2c0,0.986-0.719,1.803-1.66,1.966
			C35.524,9.234,35,8.182,35,7.001C35,4.795,36.794,3.001,39,3.001z"/>
		<path d="M8,25.001c3.309,0,6-2.691,6-6s-2.691-6-6-6s-6,2.691-6,6S4.691,25.001,8,25.001z M8,15.001c2.206,0,4,1.794,4,4
			c0,1.181-0.524,2.233-1.34,2.966C9.719,21.804,9,20.987,9,20.001H7c0,1.181,0.524,2.233,1.34,2.966
			C8.226,22.976,8.117,23.001,8,23.001c-2.206,0-4-1.794-4-4S5.794,15.001,8,15.001z"/>
		<path d="M56.316,2.053l-6-2c-0.306-0.104-0.639-0.052-0.901,0.136C49.154,0.378,49,0.68,49,1.001v8v5H35
			c-0.234,0-0.461,0.082-0.641,0.231l-6,5c-0.105,0.089-0.192,0.198-0.254,0.321l-2.836,5.673l-6.314,2.705l-5.639-1.879
			c-0.102-0.033-0.209-0.051-0.316-0.051H5c-2.757,0-5,2.243-5,5v11c0,0.553,0.447,1,1,1h3v12H0v2h5h5h4c0.553,0,1-0.447,1-1v-5h2h5
			h7c0.553,0,1-0.447,1-1v-5h6h5c0.553,0,1-0.447,1-1v-5h6h5h3v-2h-2v-8c0-2.757-2.243-5-5-5h-4v-4h5c2.757,0,5-2.243,5-5v-6
			c0-0.553-0.447-1-1-1h-3V5.722l5.316-1.772C56.725,3.813,57,3.432,57,3.001S56.725,2.189,56.316,2.053z M40.523,16.001L40,17.309
			l-0.523-1.308H40.523z M14,49.001c-0.553,0-1,0.447-1,1v5h-2v-12h5v6H14z M18,49.001v-7c0-0.553-0.447-1-1-1h-7
			c-0.553,0-1,0.447-1,1v13H6v-23H4v9H2v-10c0-1.654,1.346-3,3-3h3v7h2v-7h2.838l5.846,1.948c0.232,0.079,0.486,0.066,0.71-0.029
			l6.235-2.672l0.607,0.91l0.303,0.455l-6.708,3.353l-6.69-0.956c-0.287-0.042-0.578,0.045-0.797,0.234
			C12.126,31.436,12,31.711,12,32.001v5c0,0.553,0.447,1,1,1h5c1.654,0,3,1.346,3,3v8H18z M29,43.001c-0.553,0-1,0.447-1,1v5h-5v-8
			c0-2.757-2.243-5-5-5h-4v-2.847l5.858,0.837c0.202,0.029,0.406-0.005,0.589-0.096l8-4c0.146-0.073,0.261-0.184,0.354-0.313
			c0.008-0.011,0.023-0.015,0.031-0.026l3.905-5.857L35,22.001v21H29z M47,37.001h-5v-6h5V37.001z M53,15.001c0,1.654-1.346,3-3,3
			h-6c-0.553,0-1,0.447-1,1v6c0,0.553,0.447,1,1,1h5c1.654,0,3,1.346,3,3v8h-3v-7c0-0.553-0.447-1-1-1h-7c-0.553,0-1,0.447-1,1v8v5
			h-3v-23c0-0.379-0.214-0.725-0.553-0.895c-0.338-0.168-0.745-0.133-1.047,0.095l-4,3c-0.091,0.067-0.17,0.15-0.232,0.245
			L28,27.198l-0.846-1.27l2.646-5.293l5.562-4.634h1.961l1.748,4.371c0.153,0.38,0.52,0.629,0.929,0.629s0.776-0.249,0.929-0.629
			l1.748-4.371H50c0.553,0,1-0.447,1-1v-5h2V15.001z M51,3.613V2.389l1.838,0.612L51,3.613z"/>
		<rect x="24" y="5.001" width="2" height="2"/>
		<rect x="20" y="5.001" width="2" height="2"/>
		<rect x="16" y="5.001" width="2" height="2"/>
	</g>
</g>
<g>
</g>
<g>
</g>
<g>
</g>
<g>
</g>
<g>
</g>
<g>
</g>
<g>
</g>
<g>
</g>
<g>
</g>
<g>
</g>
<g>
</g>
<g>
</g>
<g>
</g>
<g>
</g>
<g>
</g>
</svg>
